<?xml version="1.0" encoding="UTF-8"?>
<svg xmlns="http://www.w3.org/2000/svg" xmlns:xlink="http://www.w3.org/1999/xlink" viewBox="0 0 26 26" version="1.1" width="50px" height="50px">
<g id="surface1">
<path style=" " d="M 13 1.1875 C 6.476563 1.1875 1.1875 6.476563 1.1875 13 C 1.1875 19.523438 6.476563 24.8125 13 24.8125 C 19.523438 24.8125 24.8125 19.523438 24.8125 13 C 24.8125 6.476563 19.523438 1.1875 13 1.1875 Z M 12.945313 20.214844 C 12.003906 20.214844 11.261719 19.472656 11.261719 18.53125 C 11.261719 17.589844 12.003906 16.847656 12.945313 16.847656 C 13.882813 16.847656 14.632813 17.589844 14.632813 18.53125 C 14.632813 19.472656 13.886719 20.214844 12.945313 20.214844 Z M 15.425781 12.582031 L 14.328125 13.535156 C 13.5 14.261719 13.640625 14.617188 13.640625 15.0625 L 12.410156 15.0625 L 12.410156 14.613281 C 12.410156 12.445313 14.480469 12.070313 14.480469 8.867188 C 14.480469 7.636719 14.078125 7.074219 13.054688 7.074219 C 12.113281 7.074219 11.691406 7.535156 11.828125 8.644531 C 11.910156 9.34375 11.207031 9.621094 10.746094 9.621094 C 10.226563 9.621094 9.785156 9.101563 9.785156 8.398438 C 9.785156 7.207031 11.035156 5.957031 13.210938 5.957031 C 15.328125 5.957031 17.175781 6.914063 17.175781 9.21875 C 17.179688 10.644531 16.65625 11.507813 15.425781 12.582031 Z "/>
</g>
</svg>
